<mxfile host="app.diagrams.net" modified="2023-07-06T08:00:25.303Z" agent="Mozilla/5.0 (Windows NT 10.0; Win64; x64) AppleWebKit/537.36 (KHTML, like Gecko) Chrome/114.0.0.0 Safari/537.36 Edg/114.0.1823.67" etag="NKAg_YcKCI-YNetVoupz" version="21.5.2" type="device">
  <diagram name="ページ1" id="KvheWCW_lhYavgGFbAUV">
    <mxGraphModel dx="733" dy="370" grid="1" gridSize="10" guides="1" tooltips="1" connect="1" arrows="1" fold="1" page="1" pageScale="1" pageWidth="827" pageHeight="1169" math="0" shadow="0">
      <root>
        <mxCell id="0" />
        <mxCell id="1" parent="0" />
        <mxCell id="pgSaDBaeClj1L-1pWRR5-1" value="電気スタンド" style="rounded=0;whiteSpace=wrap;html=1;" vertex="1" parent="1">
          <mxGeometry x="240" y="80" width="120" height="60" as="geometry" />
        </mxCell>
        <mxCell id="pgSaDBaeClj1L-1pWRR5-2" value="スイッチ" style="rounded=0;whiteSpace=wrap;html=1;" vertex="1" parent="1">
          <mxGeometry x="90" y="90" width="80" height="40" as="geometry" />
        </mxCell>
        <mxCell id="pgSaDBaeClj1L-1pWRR5-3" value="電球式" style="rounded=0;whiteSpace=wrap;html=1;" vertex="1" parent="1">
          <mxGeometry x="160" y="200" width="120" height="60" as="geometry" />
        </mxCell>
        <mxCell id="pgSaDBaeClj1L-1pWRR5-4" value="蛍光灯式" style="rounded=0;whiteSpace=wrap;html=1;" vertex="1" parent="1">
          <mxGeometry x="320" y="200" width="120" height="60" as="geometry" />
        </mxCell>
        <mxCell id="pgSaDBaeClj1L-1pWRR5-5" value="電球" style="rounded=0;whiteSpace=wrap;html=1;" vertex="1" parent="1">
          <mxGeometry x="160" y="310" width="120" height="60" as="geometry" />
        </mxCell>
        <mxCell id="pgSaDBaeClj1L-1pWRR5-6" value="蛍光灯" style="rounded=0;whiteSpace=wrap;html=1;" vertex="1" parent="1">
          <mxGeometry x="320" y="310" width="120" height="60" as="geometry" />
        </mxCell>
        <mxCell id="pgSaDBaeClj1L-1pWRR5-7" value="インバータ式" style="rounded=0;whiteSpace=wrap;html=1;" vertex="1" parent="1">
          <mxGeometry x="520" y="140" width="120" height="60" as="geometry" />
        </mxCell>
        <mxCell id="pgSaDBaeClj1L-1pWRR5-8" value="グロー式" style="rounded=0;whiteSpace=wrap;html=1;" vertex="1" parent="1">
          <mxGeometry x="520" y="240" width="120" height="60" as="geometry" />
        </mxCell>
        <mxCell id="pgSaDBaeClj1L-1pWRR5-9" value="グロー球" style="rounded=0;whiteSpace=wrap;html=1;" vertex="1" parent="1">
          <mxGeometry x="690" y="240" width="120" height="60" as="geometry" />
        </mxCell>
        <mxCell id="pgSaDBaeClj1L-1pWRR5-10" value="" style="endArrow=diamondThin;endFill=0;endSize=24;html=1;rounded=0;entryX=0;entryY=0.5;entryDx=0;entryDy=0;exitX=1;exitY=0.5;exitDx=0;exitDy=0;" edge="1" parent="1" source="pgSaDBaeClj1L-1pWRR5-2" target="pgSaDBaeClj1L-1pWRR5-1">
          <mxGeometry width="160" relative="1" as="geometry">
            <mxPoint x="330" y="230" as="sourcePoint" />
            <mxPoint x="490" y="230" as="targetPoint" />
          </mxGeometry>
        </mxCell>
        <mxCell id="pgSaDBaeClj1L-1pWRR5-11" value="" style="endArrow=block;endSize=16;endFill=0;html=1;rounded=0;" edge="1" parent="1">
          <mxGeometry width="160" relative="1" as="geometry">
            <mxPoint x="299.5" y="180" as="sourcePoint" />
            <mxPoint x="299.5" y="140" as="targetPoint" />
          </mxGeometry>
        </mxCell>
        <mxCell id="pgSaDBaeClj1L-1pWRR5-12" value="" style="endArrow=none;html=1;rounded=0;" edge="1" parent="1">
          <mxGeometry width="50" height="50" relative="1" as="geometry">
            <mxPoint x="220" y="180" as="sourcePoint" />
            <mxPoint x="380" y="180" as="targetPoint" />
          </mxGeometry>
        </mxCell>
        <mxCell id="pgSaDBaeClj1L-1pWRR5-13" value="" style="endArrow=none;html=1;rounded=0;" edge="1" parent="1">
          <mxGeometry width="50" height="50" relative="1" as="geometry">
            <mxPoint x="219.57999999999998" y="200" as="sourcePoint" />
            <mxPoint x="219.57999999999998" y="180" as="targetPoint" />
          </mxGeometry>
        </mxCell>
        <mxCell id="pgSaDBaeClj1L-1pWRR5-14" value="" style="endArrow=none;html=1;rounded=0;" edge="1" parent="1">
          <mxGeometry width="50" height="50" relative="1" as="geometry">
            <mxPoint x="379.58" y="200" as="sourcePoint" />
            <mxPoint x="379.58" y="180" as="targetPoint" />
          </mxGeometry>
        </mxCell>
        <mxCell id="pgSaDBaeClj1L-1pWRR5-15" value="" style="endArrow=block;endSize=16;endFill=0;html=1;rounded=0;" edge="1" parent="1">
          <mxGeometry width="160" relative="1" as="geometry">
            <mxPoint x="490" y="230" as="sourcePoint" />
            <mxPoint x="440" y="229.66" as="targetPoint" />
          </mxGeometry>
        </mxCell>
        <mxCell id="pgSaDBaeClj1L-1pWRR5-16" value="" style="endArrow=none;html=1;rounded=0;" edge="1" parent="1">
          <mxGeometry width="50" height="50" relative="1" as="geometry">
            <mxPoint x="490" y="270" as="sourcePoint" />
            <mxPoint x="490" y="170" as="targetPoint" />
          </mxGeometry>
        </mxCell>
        <mxCell id="pgSaDBaeClj1L-1pWRR5-17" value="" style="endArrow=none;html=1;rounded=0;entryX=0;entryY=0.5;entryDx=0;entryDy=0;" edge="1" parent="1" target="pgSaDBaeClj1L-1pWRR5-7">
          <mxGeometry width="50" height="50" relative="1" as="geometry">
            <mxPoint x="490" y="170" as="sourcePoint" />
            <mxPoint x="510" y="120" as="targetPoint" />
          </mxGeometry>
        </mxCell>
        <mxCell id="pgSaDBaeClj1L-1pWRR5-18" value="" style="endArrow=none;html=1;rounded=0;" edge="1" parent="1">
          <mxGeometry width="50" height="50" relative="1" as="geometry">
            <mxPoint x="490" y="269.66" as="sourcePoint" />
            <mxPoint x="520" y="269.66" as="targetPoint" />
          </mxGeometry>
        </mxCell>
        <mxCell id="pgSaDBaeClj1L-1pWRR5-19" value="" style="endArrow=diamondThin;endFill=0;endSize=24;html=1;rounded=0;" edge="1" parent="1">
          <mxGeometry width="160" relative="1" as="geometry">
            <mxPoint x="220" y="310" as="sourcePoint" />
            <mxPoint x="219.58" y="260" as="targetPoint" />
          </mxGeometry>
        </mxCell>
        <mxCell id="pgSaDBaeClj1L-1pWRR5-20" value="" style="endArrow=diamondThin;endFill=0;endSize=24;html=1;rounded=0;" edge="1" parent="1">
          <mxGeometry width="160" relative="1" as="geometry">
            <mxPoint x="380" y="310" as="sourcePoint" />
            <mxPoint x="379.58000000000004" y="260" as="targetPoint" />
          </mxGeometry>
        </mxCell>
        <mxCell id="pgSaDBaeClj1L-1pWRR5-21" value="" style="endArrow=diamondThin;endFill=0;endSize=24;html=1;rounded=0;exitX=0;exitY=0.5;exitDx=0;exitDy=0;" edge="1" parent="1" source="pgSaDBaeClj1L-1pWRR5-9">
          <mxGeometry width="160" relative="1" as="geometry">
            <mxPoint x="680" y="269.58" as="sourcePoint" />
            <mxPoint x="640" y="269.58" as="targetPoint" />
          </mxGeometry>
        </mxCell>
      </root>
    </mxGraphModel>
  </diagram>
</mxfile>
